<svg xmlns="http://www.w3.org/2000/svg" width="36" height="24" viewBox="0 0 36 24">
  <g id="Group_51" data-name="Group 51" transform="translate(-237 -521.999)">
    <rect id="Rectangle_56" data-name="Rectangle 56" width="36" height="24" transform="translate(237 521.999)" fill="#f0f0f0"/>
    <g id="Group_49" data-name="Group 49">
      <rect id="Rectangle_57" data-name="Rectangle 57" width="36" height="3" transform="translate(237 524.999)" fill="#d80027"/>
      <rect id="Rectangle_58" data-name="Rectangle 58" width="36" height="3" transform="translate(237 530.999)" fill="#d80027"/>
      <rect id="Rectangle_59" data-name="Rectangle 59" width="36" height="3" transform="translate(237 536.999)" fill="#d80027"/>
      <rect id="Rectangle_60" data-name="Rectangle 60" width="36" height="3" transform="translate(237 542.999)" fill="#d80027"/>
    </g>
    <rect id="Rectangle_61" data-name="Rectangle 61" width="18" height="12.923" transform="translate(237 521.999)" fill="#2e52b2"/>
    <g id="Group_50" data-name="Group 50">
      <path id="Path_41" data-name="Path 41" d="M244.019,527.293l-.29.892h-.938l.759.551-.29.892.759-.551.758.551-.29-.892.759-.551h-.938Z" fill="#f0f0f0"/>
      <path id="Path_42" data-name="Path 42" d="M244.308,531.4l-.289-.892-.29.892h-.938l.759.551-.29.892.759-.551.758.551-.29-.892.759-.551Z" fill="#f0f0f0"/>
      <path id="Path_43" data-name="Path 43" d="M240.345,531.4l-.289-.892-.29.892h-.938l.759.551-.29.892.759-.551.758.551-.29-.892.759-.551Z" fill="#f0f0f0"/>
      <path id="Path_44" data-name="Path 44" d="M240.056,527.293l-.29.892h-.938l.759.551-.29.892.759-.551.758.551-.29-.892.759-.551h-.938Z" fill="#f0f0f0"/>
      <path id="Path_45" data-name="Path 45" d="M244.019,524.075l-.29.892h-.938l.759.551-.29.892.759-.551.758.551-.29-.892.759-.551h-.938Z" fill="#f0f0f0"/>
      <path id="Path_46" data-name="Path 46" d="M240.056,524.075l-.29.892h-.938l.759.551-.29.892.759-.551.758.551-.29-.892.759-.551h-.938Z" fill="#f0f0f0"/>
      <path id="Path_47" data-name="Path 47" d="M247.982,527.293l-.29.892h-.938l.759.551-.29.892.759-.551.758.551-.29-.892.759-.551h-.938Z" fill="#f0f0f0"/>
      <path id="Path_48" data-name="Path 48" d="M248.271,531.4l-.29-.892-.29.892h-.938l.759.551-.29.892.759-.551.758.551-.29-.892.759-.551Z" fill="#f0f0f0"/>
      <path id="Path_49" data-name="Path 49" d="M252.234,531.4l-.289-.892-.29.892h-.938l.759.551-.29.892.759-.551.758.551-.29-.892.759-.551Z" fill="#f0f0f0"/>
      <path id="Path_50" data-name="Path 50" d="M251.945,527.293l-.29.892h-.938l.759.551-.29.892.759-.551.758.551-.29-.892.759-.551h-.938Z" fill="#f0f0f0"/>
      <path id="Path_51" data-name="Path 51" d="M247.982,524.075l-.29.892h-.938l.759.551-.29.892.759-.551.758.551-.29-.892.759-.551h-.938Z" fill="#f0f0f0"/>
      <path id="Path_52" data-name="Path 52" d="M251.945,524.075l-.29.892h-.938l.759.551-.29.892.759-.551.758.551-.29-.892.759-.551h-.938Z" fill="#f0f0f0"/>
    </g>
  </g>
</svg>
