<svg xmlns="http://www.w3.org/2000/svg" width="152.949" height="40.707" viewBox="0 0 152.949 40.707">
  <g id="Group_40" data-name="Group 40" transform="translate(-84.051 -21.912)">
    <g id="Group_39" data-name="Group 39">
      <g id="Group_13" data-name="Group 13">
        <g id="Group_12" data-name="Group 12">
          <g id="Group_10" data-name="Group 10">
            <g id="Group_9" data-name="Group 9">
              <path id="Path_3" data-name="Path 3" d="M96.475,29.633a11.4,11.4,0,0,0-2.992,2.97,12.676,12.676,0,0,0-1.6,3.615,16.219,16.219,0,0,0-.568,4.352,11.526,11.526,0,0,0,.673,4.145,5.6,5.6,0,0,0,2.037,2.695,5.8,5.8,0,0,0,3.381.944,6.467,6.467,0,0,0,2.772-.553,5.126,5.126,0,0,0,1.933-1.543,6.925,6.925,0,0,0,1.134-2.28l.294-1.013H96.906L98,37.715H110.39l-3.739,16.211h-4.788l1.428-7.138.63.737a12.86,12.86,0,0,1-1.932,3.73,7.635,7.635,0,0,1-2.878,2.3,9.408,9.408,0,0,1-3.969.783,10.234,10.234,0,0,1-5.608-1.589,11.22,11.22,0,0,1-3.99-4.536,15.316,15.316,0,0,1-1.491-6.854v-.168c0-.008,0-.017,0-.025C88.871,30.607,96.475,29.633,96.475,29.633Z" fill="#74b95c"/>
            </g>
          </g>
          <g id="Group_11" data-name="Group 11">
            <path id="Path_4" data-name="Path 4" d="M84.129,39.253a15.962,15.962,0,0,1,10.912-10.9,10.391,10.391,0,0,1,10.509,2.973L103.529,33.8h9.3L110,21.912l-1.213,3.964a14.338,14.338,0,0,0-16.571-.991A16.057,16.057,0,0,0,84.129,39.253Z" fill="#fff"/>
          </g>
        </g>
      </g>
      <g id="Group_14" data-name="Group 14">
        <path id="Path_5" data-name="Path 5" d="M195.615,46.6c-.251.275-.5.458-.752.733a6.719,6.719,0,0,1-3.427,2.016c-1.17.275-1.839-.183-2.173-1.374a6.267,6.267,0,0,1-.251-2.474,9.853,9.853,0,0,1,.669-3.116,8.713,8.713,0,0,1,2.591-3.758,2.225,2.225,0,0,1,1.588-.641,3.119,3.119,0,0,1,2.089,1.191,19.863,19.863,0,0,1,1.087,1.741h0c.418-1.557.752-3.115,1.087-4.673a1.256,1.256,0,0,0-.084-.55,5.58,5.58,0,0,0-2.758-2.2,6.231,6.231,0,0,0-5.517.733A11.506,11.506,0,0,0,186,37.9a14.909,14.909,0,0,0-2.424,6.782,10.762,10.762,0,0,0,.669,5.407,5.977,5.977,0,0,0,5.349,3.94,7.348,7.348,0,0,0,4.514-1.374.729.729,0,0,0,.167-.367c.334-1.466.668-2.933,1-4.307a8.192,8.192,0,0,0,.334-1.375h0c.084-.091,0-.091,0,0Z" fill="#74b95c"/>
      </g>
      <g id="Group_15" data-name="Group 15">
        <path id="Path_6" data-name="Path 6" d="M169.789,53.937c0-.092.083-.184.083-.275.251-1.1.5-2.108.752-3.208.669-2.841,1.421-5.682,2.09-8.614a1.971,1.971,0,0,1,.585-1.191c.669-.642,1.337-1.283,2.089-1.925a3.323,3.323,0,0,1,.836-.366,1.323,1.323,0,0,1,1.421,1.741l-.5,2.2c-.753,3.208-1.5,6.507-2.341,9.714-.167.733-.334,1.375-.5,2.108-.167.916-.167,1.833-.251,2.841,0,.366-.083.733-.083,1.1a5.308,5.308,0,0,0,3.51,4.308,4.729,4.729,0,0,0,2.758.091,7.117,7.117,0,0,0,3.845-1.924c.251-.184.251-.367.167-.733-.334-1.008-.669-2.108-1-3.116,0-.092-.083-.183-.167-.367a2.863,2.863,0,0,1-.669.458,1.573,1.573,0,0,1-2.34-.641,3.955,3.955,0,0,1-.334-2.566c.25-1.008.5-2.108.752-3.116.752-3.024,1.5-6.14,2.257-9.164a10.589,10.589,0,0,0,.418-2.841,5.322,5.322,0,0,0-2.257-4.307,3.669,3.669,0,0,0-1.337-.641,5.331,5.331,0,0,0-2.675.091,9.3,9.3,0,0,0-2.591,1.1l.251-1.375H169.12c-1.672,6.782-3.26,13.563-4.931,20.436C166.278,53.937,168.033,53.937,169.789,53.937Z" fill="#74b95c"/>
      </g>
      <g id="Group_16" data-name="Group 16">
        <path id="Path_7" data-name="Path 7" d="M128.332,33.409c-.334,1.466-.668,2.932-1.086,4.49h2.507c-1.254,5.407-2.507,10.722-3.845,16.038h5.433c1.421-5.316,2.675-10.723,3.928-16.038H138.7c.335-1.466.753-2.932,1.087-4.49h-3.427c.669-3.024,1.421-5.865,2.09-8.889h-5.433c-.669,2.932-1.421,5.956-2.09,8.889Z" fill="#74b95c"/>
      </g>
      <g id="Group_17" data-name="Group 17">
        <path id="Path_8" data-name="Path 8" d="M136.607,53.937h5.433c2.423-10.264,4.931-20.528,7.355-30.792h-5.517Z" fill="#74b95c"/>
      </g>
      <g id="Group_18" data-name="Group 18">
        <path id="Path_9" data-name="Path 9" d="M208.9,47.43h0c0,.092.083.092,0,0C208.988,47.522,208.9,47.522,208.9,47.43Z" fill="#74b95c"/>
      </g>
      <g id="Group_20" data-name="Group 20">
        <g id="Group_19" data-name="Group 19">
          <path id="Path_10" data-name="Path 10" d="M159.09,35.15c.167-.641.334-1.191.5-1.741h5.349c-.167.733-.335,1.374-.5,2.016-.835,3.391-1.588,6.873-2.424,10.264-.167.825-.417,1.558-.585,2.382-.167.734.168,1.283.836,1.192.251,0,.585-.092.836-.092a.588.588,0,0,0,.334-.091c-.167.549-.25,1.1-.418,1.557-.167.642-.334,1.283-.5,1.833a.729.729,0,0,1-.167.367,6.039,6.039,0,0,1-3.845,1.374,3.675,3.675,0,0,1-2.842-1.557,1.272,1.272,0,0,1-.25-.367c-.335.275-.669.458-.92.641a5.081,5.081,0,0,1-3.176,1.009,4.583,4.583,0,0,1-4.179-3.116,11.154,11.154,0,0,1-.669-5.224,17.3,17.3,0,0,1,2.675-8.156,10.21,10.21,0,0,1,4.179-4.032,4.18,4.18,0,0,1,4.263,0A9.526,9.526,0,0,1,159.09,35.15Zm-7.439,11.089c.084.55.084,1.008.168,1.558.25,1.466,1.17,1.924,2.256,1.1a10.274,10.274,0,0,0,1-1.008A12.156,12.156,0,0,0,157,43.948a11.386,11.386,0,0,0,.585-2.933,6.594,6.594,0,0,0-.251-2.2,1.288,1.288,0,0,0-1.672-.917,2.834,2.834,0,0,0-1.17.825A11.5,11.5,0,0,0,151.651,46.239Z" fill="#74b95c"/>
        </g>
      </g>
      <g id="Group_22" data-name="Group 22">
        <g id="Group_21" data-name="Group 21">
          <path id="Path_11" data-name="Path 11" d="M126.493,41.473a14.089,14.089,0,0,1-1.838,6.965,12.5,12.5,0,0,1-4.43,4.857,6.191,6.191,0,0,1-9.612-3.849,13.842,13.842,0,0,1,.585-8.614,14.568,14.568,0,0,1,2.424-4.216,9.4,9.4,0,0,1,5.349-3.3,6.246,6.246,0,0,1,7.021,5.041l.251,1.374A12.415,12.415,0,0,1,126.493,41.473Zm-4.847-.366a6.435,6.435,0,0,0-.335-2.383,1.272,1.272,0,0,0-1.421-.825,2.09,2.09,0,0,0-.668.275A5.327,5.327,0,0,0,117.3,40.19a13.844,13.844,0,0,0-1.838,5.132,6.538,6.538,0,0,0,.083,2.841c.335,1.191,1.17,1.65,2.173,1.008a4.076,4.076,0,0,0,1.338-1.1A12.02,12.02,0,0,0,121.646,41.107Z" fill="#74b95c"/>
        </g>
      </g>
      <g id="Group_24" data-name="Group 24">
        <g id="Group_23" data-name="Group 23">
          <path id="Path_12" data-name="Path 12" d="M208.9,47.613a2.885,2.885,0,0,0-.168.825c-.334,1.466-.668,2.933-1,4.307a1.066,1.066,0,0,1-.417.642,6.066,6.066,0,0,1-5.6.458,5.89,5.89,0,0,1-2.257-1.375,6.806,6.806,0,0,1-2.006-3.482,13.65,13.65,0,0,1,.334-7.331,13.068,13.068,0,0,1,5.349-7.148,6.951,6.951,0,0,1,4.43-1.192,6.517,6.517,0,0,1,3.594,1.375,4.6,4.6,0,0,1,1.588,3.116,7.6,7.6,0,0,1-1.838,6.231,8.939,8.939,0,0,1-4.765,3.116,7.214,7.214,0,0,1-3.426,0,.586.586,0,0,1-.335-.092,2.578,2.578,0,0,0,1.672,2.566,3.836,3.836,0,0,0,1.421-.091,6.115,6.115,0,0,0,3.092-1.65c.084-.091.251-.183.335-.275Zm-6.269-4.307a.283.283,0,0,1,.167.092,5.841,5.841,0,0,0,3.928-.458,3.831,3.831,0,0,0,1.756-2.108,2.285,2.285,0,0,0-.5-2.383,1.4,1.4,0,0,0-1.922-.091c-.084,0-.084.091-.167.091a6.367,6.367,0,0,0-1.672,1.741A8.849,8.849,0,0,0,202.636,43.306Z" fill="#74b95c"/>
        </g>
      </g>
      <g id="Group_25" data-name="Group 25">
        <path id="Path_13" data-name="Path 13" d="M128.332,33.409h2.508c.668-2.933,1.421-5.957,2.089-8.889h5.433c-.669,2.932-1.337,5.865-2.09,8.889H139.7c-.418,1.558-.752,2.932-1.086,4.49h-3.427c-1.17,5.315-2.424,10.722-3.761,16.038h-5.433c1.254-5.316,2.507-10.631,3.845-16.038h-2.508C127.664,36.341,128,34.967,128.332,33.409Z" fill="#74b95c"/>
      </g>
      <g id="Group_26" data-name="Group 26">
        <path id="Path_14" data-name="Path 14" d="M136.607,53.937c2.424-10.264,4.931-20.528,7.355-30.792h5.516c-2.507,10.264-5.015,20.528-7.438,30.792Z" fill="#74b95c"/>
      </g>
      <g id="Group_27" data-name="Group 27">
        <path id="Path_15" data-name="Path 15" d="M195.615,46.6h0c0-.091.084-.091,0,0Z" fill="#74b95c"/>
      </g>
      <g id="Group_28" data-name="Group 28">
        <path id="Path_16" data-name="Path 16" d="M208.9,47.43c0,.092.083.092,0,0,.083.092,0,.092,0,0Z" fill="#74b95c"/>
      </g>
      <g id="Group_29" data-name="Group 29">
        <path id="Path_17" data-name="Path 17" d="M217.764,36.708l.084-.092S217.848,36.708,217.764,36.708Z" fill="#74b95c"/>
      </g>
      <g id="Group_36" data-name="Group 36">
        <g id="Group_35" data-name="Group 35">
          <g id="Group_34" data-name="Group 34">
            <g id="Group_31" data-name="Group 31">
              <g id="Group_30" data-name="Group 30">
                <path id="Path_18" data-name="Path 18" d="M228.962,51.406a2.79,2.79,0,0,1-2.718,2.924,2.757,2.757,0,0,1-2.718-2.924,2.721,2.721,0,0,1,2.769-2.868A2.669,2.669,0,0,1,228.962,51.406Zm-.666-.056a2.154,2.154,0,0,0-2.462-2.306,2.222,2.222,0,0,0-1.642,2.081,2.456,2.456,0,0,0,.718,1.968,2.071,2.071,0,0,0,2.1.393A2.163,2.163,0,0,0,228.3,51.35Z" fill="#fff"/>
              </g>
            </g>
            <g id="Group_33" data-name="Group 33">
              <g id="Group_32" data-name="Group 32">
                <path id="Path_19" data-name="Path 19" d="M225.782,52.924h-.564V50a3.04,3.04,0,0,1,1.59,0,.713.713,0,0,1,.41,1.125,2.841,2.841,0,0,1-.41.337c.564.281.462.9.667,1.462h-.564c-.052,0-.1-.112-.154-.169-.051-.168-.1-.393-.154-.562-.1-.394-.205-.45-.564-.45h-.308A9.152,9.152,0,0,1,225.782,52.924Zm.1-1.631c.205-.056.41-.056.615-.112a.422.422,0,0,0,.257-.394.35.35,0,0,0-.257-.337,1.147,1.147,0,0,0-.615,0Z" fill="#fff"/>
              </g>
            </g>
          </g>
        </g>
      </g>
      <g id="Group_37" data-name="Group 37">
        <path id="Path_20" data-name="Path 20" d="M227.664,48.688,237,43.09l-8.9-7.837.948,4.558a9.106,9.106,0,0,0-5.689.16s-4.814,1.759-7.294,5.758l-2.334,9.276h5.689l1.313-4.958s2.188-4.8,5.543-5.6a4.049,4.049,0,0,1,2.626.64Z" fill="#fff"/>
      </g>
      <g id="Group_38" data-name="Group 38">
        <path id="Path_21" data-name="Path 21" d="M214.39,33.574l-.875,5.278H217.6l-.729,3.358a16.73,16.73,0,0,1,6.464-3.958l.022-.006,1.029-4.672H214.39Z" fill="#74b95c"/>
      </g>
    </g>
  </g>
</svg>
